# xmcd
#
# Track frame offsets:
#	150
#	20717
#	32420
#	50832
#	56217
#	75285
#	94517
#	106792
#	123170
#	140280
#	158980
#	178640
#	189672
#	208717
#	231632
#
# Disc length: 3279 seconds
#
# Revision: 1
# Processed by: cddbd v1.5.1PL0 Copyright (c) Steve Scherf et al.
# Submitted via: CDex 1.50Beta5
#
DISCID=c80ccd0f
DTITLE=山下達郎 - 山下達郎 /X`mas
DYEAR=1900
DGENRE=
TTITLE0=ターナーの機関車
TTITLE1=Blue Velvet
TTITLE2=Lady Blue
TTITLE3=Silent Night
TTITLE4=・イブ
TTITLE5=シャンプー
TTITLE6=おやすみロージー
TTITLE7=God Only Knows
TTITLE8=That`s My Desire
TTITLE9=エンドレス・ゲーム
TTITLE10=Get Back In Love
TTITLE11=White Christmas
TTITLE12=・イブ
TTITLE13=You Make Me Feel Brand New
TTITLE14=Your Eyes
EXTD=
EXTT0=
EXTT1=
EXTT2=
EXTT3=
EXTT4=
EXTT5=
EXTT6=
EXTT7=
EXTT8=
EXTT9=
EXTT10=
EXTT11=
EXTT12=
EXTT13=
EXTT14=
PLAYORDER=
